<?xml version="1.0" encoding="utf-8"?>
<!-- Generator: Adobe Illustrator 28.0.0, SVG Export Plug-In . SVG Version: 6.00 Build 0)  -->
<svg version="1.1" id="Layer_1" xmlns="http://www.w3.org/2000/svg" xmlns:xlink="http://www.w3.org/1999/xlink" x="0px" y="0px"
	 viewBox="0 0 900.92 146.93" style="enable-background:new 0 0 900.92 146.93;" xml:space="preserve">
<style type="text/css">
	.st0{fill:url(#SVGID_1_);}
	.st1{fill:url(#SVGID_00000009555640345392986100000013018203175519160245_);}
	.st2{fill:url(#SVGID_00000178888602943118772530000014914682633301162167_);}
	.st3{fill:url(#SVGID_00000119093522808301835190000000648775431604592561_);}
	.st4{fill:url(#SVGID_00000031191329359679209560000002139831615548395411_);}
	.st5{fill:url(#SVGID_00000158006547343428534660000011602425468683980990_);}
	.st6{fill:url(#SVGID_00000026141271950629889510000006423227821366359442_);}
	.st7{fill:url(#SVGID_00000038384443053114676070000000680310810392629401_);}
	.st8{fill:url(#SVGID_00000009567753671966432080000016000820888717852581_);}
	.st9{fill:url(#SVGID_00000063598109607908693590000009813985948151179425_);}
	.st10{fill:url(#SVGID_00000104699354908877593580000002990902242292274081_);}
	.st11{fill:url(#SVGID_00000021108103035631743540000005734285053921207942_);}
	.st12{fill:url(#SVGID_00000069385096880484484360000010108635812545284275_);}
	.st13{fill:url(#SVGID_00000120524621697380331990000012986703951826897066_);}
	.st14{fill:url(#SVGID_00000133501158192859949130000004402141279831250106_);}
	.st15{fill:url(#SVGID_00000147206331781493081660000004634298692022700697_);}
	.st16{fill:url(#SVGID_00000170262631960694805650000005049079738842377899_);}
	.st17{fill:url(#SVGID_00000072968656620775082020000009911407879644810114_);}
	.st18{fill:url(#SVGID_00000037675602679123999490000011661265663017569424_);}
	.st19{fill:url(#SVGID_00000093167274453760656890000018201227329010314673_);}
	.st20{fill:url(#SVGID_00000095322273750838817860000012595445869956076955_);}
	.st21{fill:url(#SVGID_00000103252458662985816020000007039738751346172070_);}
	.st22{fill:url(#SVGID_00000023274883717439509460000013265454189316350141_);}
	.st23{fill:url(#SVGID_00000085936549492778107160000006674336464751932810_);}
	.st24{fill:url(#SVGID_00000175312407656552948140000003086089623484424891_);}
	.st25{fill:url(#SVGID_00000123426885032656030920000015963944630066533001_);}
	.st26{fill:url(#SVGID_00000165919803029697252310000001195841035720169391_);}
	.st27{fill:url(#SVGID_00000096773045077999631380000008643675953250200459_);}
	.st28{fill:url(#SVGID_00000144314321143040461860000011061559606670367928_);}
	.st29{fill:url(#SVGID_00000082357625460233643290000012357941319905834416_);}
	.st30{fill:url(#SVGID_00000106844113295347452190000005014086687113715338_);}
	.st31{fill:url(#SVGID_00000051346714729263141700000011471079528233020310_);}
	.st32{fill:url(#SVGID_00000096048075342564824480000004011838567846051742_);}
	.st33{fill:url(#SVGID_00000172438169634670553960000014243126028720465838_);}
	.st34{fill:url(#SVGID_00000075856366077220089570000000759834355357139353_);}
	.st35{fill:url(#SVGID_00000060729652369549283620000009994822610358241197_);}
	.st36{fill:url(#SVGID_00000058569912866619504510000017173118335198035602_);}
	.st37{fill:url(#SVGID_00000120546624247191176390000017085820487169907114_);}
	.st38{fill:url(#SVGID_00000000185884420736839200000006674502487244499870_);}
	.st39{fill:url(#SVGID_00000140004586560538861820000018380301930046955683_);}
	.st40{fill:url(#SVGID_00000034779670693379592710000002866766442982498962_);}
	.st41{fill:url(#SVGID_00000078757383152639916690000003593956088678439059_);}
	.st42{fill:url(#SVGID_00000108308442212672239790000000889383818359324561_);}
	.st43{fill:url(#SVGID_00000068639596167385582760000004110088964911939973_);}
	.st44{fill:url(#SVGID_00000042731821300478650610000002095964219016665760_);}
	.st45{fill:url(#SVGID_00000074440546763914123520000002817687401238936455_);}
</style>
<g>
	<g>
		<radialGradient id="SVGID_1_" cx="140.8892" cy="37.1231" r="14.8397" gradientUnits="userSpaceOnUse">
			<stop  offset="0" style="stop-color:#007D76"/>
			<stop  offset="0.5524" style="stop-color:#007082"/>
			<stop  offset="1" style="stop-color:#00628F"/>
		</radialGradient>
		<path class="st0" d="M127.34,32.46c6.29-4.65,13.34-8.46,20.99-11.36c2.93,6.82,4.98,13.82,6.11,20.86
			C122.14,54.29,140.67,62.61,127.34,32.46z"/>
		
			<radialGradient id="SVGID_00000052810549594087899460000014854468759855951265_" cx="59.9679" cy="37.1383" r="14.8461" gradientUnits="userSpaceOnUse">
			<stop  offset="0" style="stop-color:#007D76"/>
			<stop  offset="0.5524" style="stop-color:#007082"/>
			<stop  offset="1" style="stop-color:#00628F"/>
		</radialGradient>
		<path style="fill:url(#SVGID_00000052810549594087899460000014854468759855951265_);" d="M46.42,41.96
			c1.13-7.04,3.18-14.05,6.11-20.86c7.65,2.9,14.69,6.71,20.99,11.35C60.15,62.66,78.76,54.33,46.42,41.96z"/>
		
			<radialGradient id="SVGID_00000072988405529669955220000017583021945518655410_" cx="100.4274" cy="54.0196" r="37.3581" gradientUnits="userSpaceOnUse">
			<stop  offset="0" style="stop-color:#007D76"/>
			<stop  offset="0.5524" style="stop-color:#007082"/>
			<stop  offset="1" style="stop-color:#00628F"/>
		</radialGradient>
		<path style="fill:url(#SVGID_00000072988405529669955220000017583021945518655410_);" d="M100.43,100.03
			C95.57,84.02,86.6,69.98,74.46,59.11c2.24-19.6,11.58-37.25,25.96-51.1c15.15,14.58,23.84,32.53,25.96,51.11
			C114.13,70.15,105.25,84.15,100.43,100.03z"/>
		
			<radialGradient id="SVGID_00000124864872929470401460000009650466119497683595_" cx="148.68" cy="73.6634" r="35.8772" gradientUnits="userSpaceOnUse">
			<stop  offset="0" style="stop-color:#007D76"/>
			<stop  offset="0.5524" style="stop-color:#007082"/>
			<stop  offset="1" style="stop-color:#00628F"/>
		</radialGradient>
		<path style="fill:url(#SVGID_00000124864872929470401460000009650466119497683595_);" d="M107.72,103.61
			c10.1-35.16,41.73-60.09,81.91-59.9C172.59,109.82,134.44,61.32,107.72,103.61z"/>
		
			<radialGradient id="SVGID_00000002350298080741535950000013563953809260346008_" cx="163.6364" cy="96.8605" r="25.3057" gradientUnits="userSpaceOnUse">
			<stop  offset="0" style="stop-color:#007D76"/>
			<stop  offset="0.5524" style="stop-color:#007082"/>
			<stop  offset="1" style="stop-color:#00628F"/>
		</radialGradient>
		<path style="fill:url(#SVGID_00000002350298080741535950000013563953809260346008_);" d="M139.9,123.64
			c7.83-9.02,6.2-21.01,25.91-34.61c5.99-4.14,13.1-5.85,21.58-18.95C180.23,95.13,162.51,114.32,139.9,123.64z"/>
		
			<radialGradient id="SVGID_00000025443962033417328570000012278668652884265100_" cx="128.3079" cy="110.3354" r="21.1881" gradientUnits="userSpaceOnUse">
			<stop  offset="0" style="stop-color:#007D76"/>
			<stop  offset="0.5524" style="stop-color:#007082"/>
			<stop  offset="1" style="stop-color:#00628F"/>
		</radialGradient>
		<path style="fill:url(#SVGID_00000025443962033417328570000012278668652884265100_);" d="M105.69,129.15
			c8.23-31.58,22.75-37.47,42.21-38.11c5.87-0.19,2.87-1.39-2.71,7.05c-9.14,11.93-6.12,26.32-32.99,30.84
			C104.33,130.26,105.51,129.82,105.69,129.15z"/>
		
			<radialGradient id="SVGID_00000145019914580182076780000005418543399765856680_" cx="52.1804" cy="73.6698" r="35.8835" gradientUnits="userSpaceOnUse">
			<stop  offset="0" style="stop-color:#007D76"/>
			<stop  offset="0.5524" style="stop-color:#007082"/>
			<stop  offset="1" style="stop-color:#00628F"/>
		</radialGradient>
		<path style="fill:url(#SVGID_00000145019914580182076780000005418543399765856680_);" d="M93.14,103.63
			c-26.4-41.68-64.57,5.81-81.92-59.92C51.09,43.52,82.97,68.19,93.14,103.63z"/>
		
			<radialGradient id="SVGID_00000023272547647001878940000004233227132200730272_" cx="37.2233" cy="96.8565" r="25.3112" gradientUnits="userSpaceOnUse">
			<stop  offset="0" style="stop-color:#007D76"/>
			<stop  offset="0.5524" style="stop-color:#007082"/>
			<stop  offset="1" style="stop-color:#00628F"/>
		</radialGradient>
		<path style="fill:url(#SVGID_00000023272547647001878940000004233227132200730272_);" d="M60.97,123.64
			c-22.78-9.38-40.4-28.68-47.49-53.57c5,7.81,8.08,9.28,9.75,11.72c0.64,0,0.39-0.08,0.95,0.36c2.38,2.19,7.38,4.54,10,6.29
			C53.45,100.73,53.28,114.82,60.97,123.64z"/>
		
			<radialGradient id="SVGID_00000122700548273916493350000013707777835270697909_" cx="72.5513" cy="110.3384" r="21.1785" gradientUnits="userSpaceOnUse">
			<stop  offset="0" style="stop-color:#007D76"/>
			<stop  offset="0.5524" style="stop-color:#007082"/>
			<stop  offset="1" style="stop-color:#00628F"/>
		</radialGradient>
		<path style="fill:url(#SVGID_00000122700548273916493350000013707777835270697909_);" d="M62.24,110.08
			c-9.26-21.19-17.08-19.27-9.28-19.03c18.73,0.58,33.76,5.76,42.37,38.74C75.1,128.18,66.94,120.88,62.24,110.08z"/>
	</g>
	<g>
		
			<radialGradient id="SVGID_00000104664615908799111220000012228002466751551636_" cx="242.2113" cy="77.3786" r="23.2788" gradientUnits="userSpaceOnUse">
			<stop  offset="0" style="stop-color:#007D76"/>
			<stop  offset="0.5524" style="stop-color:#007082"/>
			<stop  offset="1" style="stop-color:#00628F"/>
		</radialGradient>
		<path style="fill:url(#SVGID_00000104664615908799111220000012228002466751551636_);" d="M255.45,103.23V80.02h-26.48v23.21h-7.14
			V51.52h7.14v22.44h26.48V51.52h7.14v51.71H255.45z"/>
		
			<radialGradient id="SVGID_00000158742338005433495660000009440293905197988767_" cx="283.1665" cy="77.3786" r="18.4553" gradientUnits="userSpaceOnUse">
			<stop  offset="0" style="stop-color:#007D76"/>
			<stop  offset="0.5524" style="stop-color:#007082"/>
			<stop  offset="1" style="stop-color:#00628F"/>
		</radialGradient>
		<path style="fill:url(#SVGID_00000158742338005433495660000009440293905197988767_);" d="M286.74,103.23h-7.14V51.52h7.14V103.23z
			"/>
		
			<radialGradient id="SVGID_00000173159745072496990380000012045809214949937328_" cx="325.053" cy="77.3786" r="23.6923" gradientUnits="userSpaceOnUse">
			<stop  offset="0" style="stop-color:#007D76"/>
			<stop  offset="0.5524" style="stop-color:#007082"/>
			<stop  offset="1" style="stop-color:#00628F"/>
		</radialGradient>
		<path style="fill:url(#SVGID_00000173159745072496990380000012045809214949937328_);" d="M339.53,103.23l-28.96-40.61v40.61h-6.83
			V51.52h6.83l28.96,40.61V51.52h6.83v51.71H339.53z"/>
		
			<radialGradient id="SVGID_00000178918531482709699790000001202509210166936974_" cx="382.0022" cy="77.3786" r="24.4628" gradientUnits="userSpaceOnUse">
			<stop  offset="0" style="stop-color:#007D76"/>
			<stop  offset="0.5524" style="stop-color:#007082"/>
			<stop  offset="1" style="stop-color:#00628F"/>
		</radialGradient>
		<path style="fill:url(#SVGID_00000178918531482709699790000001202509210166936974_);" d="M387.83,50.59c2.9,0,5.67,0.25,8.31,0.74
			c2.64,0.49,5.02,1.26,7.14,2.29l-1.16,5.67c-2.23-0.88-4.54-1.58-6.95-2.1c-2.41-0.52-4.83-0.78-7.26-0.78
			c-6.42,0-11.47,1.87-15.14,5.62c-3.68,3.75-5.51,9.05-5.51,15.92c0,6.61,1.73,11.69,5.2,15.23c3.47,3.54,8.67,5.31,15.61,5.31
			c1.66,0,3.33-0.12,5.01-0.35c1.68-0.23,3.12-0.53,4.31-0.89V80.41h6.52v20.85c-1.97,0.84-4.48,1.54-7.53,2.09
			c-3.05,0.55-6.11,0.83-9.16,0.83c-4.24,0-8.05-0.63-11.41-1.9c-3.37-1.27-6.21-3.05-8.54-5.36c-2.33-2.3-4.1-5.06-5.32-8.27
			c-1.22-3.21-1.82-6.75-1.82-10.64c0-4.04,0.63-7.74,1.9-11.1c1.27-3.36,3.09-6.25,5.47-8.66c2.38-2.41,5.28-4.28,8.7-5.63
			C379.6,51.27,383.48,50.59,387.83,50.59z"/>
		
			<radialGradient id="SVGID_00000098196300729309536000000001086796649619886761_" cx="439.7657" cy="77.3786" r="24.9774" gradientUnits="userSpaceOnUse">
			<stop  offset="0" style="stop-color:#007D76"/>
			<stop  offset="0.5524" style="stop-color:#007082"/>
			<stop  offset="1" style="stop-color:#00628F"/>
		</radialGradient>
		<path style="fill:url(#SVGID_00000098196300729309536000000001086796649619886761_);" d="M463.83,103.23h-7.3l-4.74-12.5h-24.15
			l-4.66,12.5h-7.3l20.57-51.71h6.99L463.83,103.23z M429.83,84.99h19.88l-9.94-26.94L429.83,84.99z"/>
		
			<radialGradient id="SVGID_00000021840819508359380670000012395352274387854468_" cx="503.0424" cy="77.3786" r="26.8826" gradientUnits="userSpaceOnUse">
			<stop  offset="0" style="stop-color:#007D76"/>
			<stop  offset="0.5524" style="stop-color:#007082"/>
			<stop  offset="1" style="stop-color:#00628F"/>
		</radialGradient>
		<path style="fill:url(#SVGID_00000021840819508359380670000012395352274387854468_);" d="M520.74,51.52h6.44l3.73,51.71h-6.83
			l-2.48-40.3l-14.91,30.98h-7.3l-14.91-30.98l-2.48,40.3h-6.83l3.73-51.71h6.44l17.7,36.57L520.74,51.52z"/>
		
			<radialGradient id="SVGID_00000132074317007273483010000005628627725394339721_" cx="550.2468" cy="77.3786" r="18.4553" gradientUnits="userSpaceOnUse">
			<stop  offset="0" style="stop-color:#007D76"/>
			<stop  offset="0.5524" style="stop-color:#007082"/>
			<stop  offset="1" style="stop-color:#00628F"/>
		</radialGradient>
		<path style="fill:url(#SVGID_00000132074317007273483010000005628627725394339721_);" d="M553.82,103.23h-7.14V51.52h7.14V103.23z
			"/>
		
			<radialGradient id="SVGID_00000173136990173131827900000017789709144192727194_" cx="584.1367" cy="77.3786" r="22.245" gradientUnits="userSpaceOnUse">
			<stop  offset="0" style="stop-color:#007D76"/>
			<stop  offset="0.5524" style="stop-color:#007082"/>
			<stop  offset="1" style="stop-color:#00628F"/>
		</radialGradient>
		<path style="fill:url(#SVGID_00000173136990173131827900000017789709144192727194_);" d="M600.64,89.8c0,2.23-0.48,4.22-1.44,5.98
			c-0.96,1.76-2.25,3.26-3.88,4.5c-1.63,1.24-3.55,2.2-5.75,2.87c-2.2,0.67-4.57,1.01-7.1,1.01c-2.48,0-5.03-0.26-7.65-0.78
			c-2.61-0.52-5.01-1.29-7.18-2.33l1.4-5.67c1.91,0.88,4.02,1.61,6.33,2.17c2.3,0.57,4.62,0.85,6.95,0.85
			c3.36,0,6.08-0.71,8.15-2.14c2.07-1.42,3.11-3.48,3.11-6.17c0-1.5-0.3-2.78-0.89-3.84c-0.6-1.06-1.41-2.02-2.45-2.87
			c-1.04-0.85-2.24-1.62-3.61-2.29c-1.37-0.67-2.83-1.37-4.39-2.1c-1.76-0.83-3.45-1.69-5.09-2.6c-1.63-0.91-3.07-1.94-4.31-3.11
			c-1.24-1.16-2.24-2.48-2.99-3.96c-0.75-1.47-1.13-3.19-1.13-5.16c0-2.22,0.4-4.19,1.2-5.9c0.8-1.71,1.93-3.13,3.38-4.27
			c1.45-1.14,3.18-1.99,5.2-2.56c2.02-0.57,4.24-0.85,6.68-0.85c2.48,0,4.9,0.28,7.26,0.85c2.35,0.57,4.41,1.32,6.17,2.25
			l-1.32,5.67c-1.66-0.88-3.55-1.6-5.67-2.17c-2.12-0.57-4.27-0.85-6.44-0.85c-6.26,0-9.39,2.43-9.39,7.3
			c0,1.09,0.16,2.03,0.47,2.83c0.31,0.8,0.82,1.55,1.51,2.25c0.7,0.7,1.63,1.37,2.8,2.02c1.16,0.65,2.57,1.39,4.23,2.21
			c1.66,0.83,3.42,1.72,5.28,2.68c1.86,0.96,3.57,2.1,5.12,3.42c1.55,1.32,2.85,2.86,3.88,4.62
			C600.12,85.43,600.64,87.47,600.64,89.8z"/>
		
			<radialGradient id="SVGID_00000033347273452728292930000010745594093072794547_" cx="633.3211" cy="77.3786" r="22.8604" gradientUnits="userSpaceOnUse">
			<stop  offset="0" style="stop-color:#007D76"/>
			<stop  offset="0.5524" style="stop-color:#007082"/>
			<stop  offset="1" style="stop-color:#00628F"/>
		</radialGradient>
		<path style="fill:url(#SVGID_00000033347273452728292930000010745594093072794547_);" d="M613.91,103.23V51.52h7.14V76.6
			l21.58-25.08h8.62l-22.28,25.62l23.76,26.09h-9.01l-22.67-25.62v25.62H613.91z"/>
		
			<radialGradient id="SVGID_00000178910141288603272640000003177425214871540884_" cx="678.0416" cy="77.3786" r="20.9671" gradientUnits="userSpaceOnUse">
			<stop  offset="0" style="stop-color:#007D76"/>
			<stop  offset="0.5524" style="stop-color:#007082"/>
			<stop  offset="1" style="stop-color:#00628F"/>
		</radialGradient>
		<path style="fill:url(#SVGID_00000178910141288603272640000003177425214871540884_);" d="M663.52,51.52h28.8v5.82h-21.66v16.54
			h20.73v5.82h-20.73v17.7h21.89v5.82h-29.04V51.52z"/>
		
			<radialGradient id="SVGID_00000090974484958840523170000006228600851606574721_" cx="720.627" cy="77.3786" r="22.245" gradientUnits="userSpaceOnUse">
			<stop  offset="0" style="stop-color:#007D76"/>
			<stop  offset="0.5524" style="stop-color:#007082"/>
			<stop  offset="1" style="stop-color:#00628F"/>
		</radialGradient>
		<path style="fill:url(#SVGID_00000090974484958840523170000006228600851606574721_);" d="M737.13,89.8c0,2.23-0.48,4.22-1.44,5.98
			c-0.96,1.76-2.25,3.26-3.88,4.5c-1.63,1.24-3.55,2.2-5.75,2.87c-2.2,0.67-4.57,1.01-7.1,1.01c-2.48,0-5.03-0.26-7.65-0.78
			c-2.61-0.52-5.01-1.29-7.18-2.33l1.4-5.67c1.91,0.88,4.02,1.61,6.33,2.17c2.3,0.57,4.62,0.85,6.95,0.85
			c3.36,0,6.08-0.71,8.15-2.14c2.07-1.42,3.11-3.48,3.11-6.17c0-1.5-0.3-2.78-0.89-3.84c-0.6-1.06-1.41-2.02-2.45-2.87
			c-1.04-0.85-2.24-1.62-3.61-2.29c-1.37-0.67-2.83-1.37-4.39-2.1c-1.76-0.83-3.45-1.69-5.09-2.6c-1.63-0.91-3.07-1.94-4.31-3.11
			s-2.24-2.48-2.99-3.96c-0.75-1.47-1.13-3.19-1.13-5.16c0-2.22,0.4-4.19,1.2-5.9c0.8-1.71,1.93-3.13,3.38-4.27
			c1.45-1.14,3.18-1.99,5.2-2.56c2.02-0.57,4.24-0.85,6.68-0.85c2.48,0,4.9,0.28,7.26,0.85c2.35,0.57,4.41,1.32,6.17,2.25
			l-1.32,5.67c-1.66-0.88-3.55-1.6-5.67-2.17c-2.12-0.57-4.27-0.85-6.44-0.85c-6.26,0-9.39,2.43-9.39,7.3
			c0,1.09,0.16,2.03,0.47,2.83c0.31,0.8,0.82,1.55,1.51,2.25c0.7,0.7,1.63,1.37,2.8,2.02c1.16,0.65,2.57,1.39,4.23,2.21
			c1.66,0.83,3.42,1.72,5.28,2.68c1.86,0.96,3.57,2.1,5.12,3.42c1.55,1.32,2.85,2.86,3.88,4.62
			C736.61,85.43,737.13,87.47,737.13,89.8z"/>
		
			<radialGradient id="SVGID_00000008147263217412915730000013935932198921726396_" cx="769.8115" cy="77.3786" r="22.8604" gradientUnits="userSpaceOnUse">
			<stop  offset="0" style="stop-color:#007D76"/>
			<stop  offset="0.5524" style="stop-color:#007082"/>
			<stop  offset="1" style="stop-color:#00628F"/>
		</radialGradient>
		<path style="fill:url(#SVGID_00000008147263217412915730000013935932198921726396_);" d="M750.4,103.23V51.52h7.14V76.6
			l21.58-25.08h8.62l-22.28,25.62l23.76,26.09h-9.01l-22.67-25.62v25.62H750.4z"/>
		
			<radialGradient id="SVGID_00000046318843773063850070000006791752242451865734_" cx="819.579" cy="77.8445" r="23.488" gradientUnits="userSpaceOnUse">
			<stop  offset="0" style="stop-color:#007D76"/>
			<stop  offset="0.5524" style="stop-color:#007082"/>
			<stop  offset="1" style="stop-color:#00628F"/>
		</radialGradient>
		<path style="fill:url(#SVGID_00000046318843773063850070000006791752242451865734_);" d="M832.7,51.52h7.14v33.39
			c0,2.69-0.44,5.22-1.32,7.57c-0.88,2.36-2.17,4.4-3.88,6.13c-1.71,1.73-3.82,3.09-6.33,4.08c-2.51,0.98-5.42,1.47-8.73,1.47
			c-3.31,0-6.22-0.49-8.73-1.47c-2.51-0.98-4.62-2.34-6.33-4.08c-1.71-1.73-3-3.78-3.88-6.13c-0.88-2.35-1.32-4.88-1.32-7.57V51.52
			h7.14v33.7c0,3.88,1.1,7.04,3.3,9.47c2.2,2.43,5.47,3.65,9.82,3.65c4.35,0,7.62-1.22,9.82-3.65c2.2-2.43,3.3-5.59,3.3-9.47V51.52z
			"/>
		
			<radialGradient id="SVGID_00000043452939970983274100000007244674795390275472_" cx="869.4628" cy="77.3786" r="22.245" gradientUnits="userSpaceOnUse">
			<stop  offset="0" style="stop-color:#007D76"/>
			<stop  offset="0.5524" style="stop-color:#007082"/>
			<stop  offset="1" style="stop-color:#00628F"/>
		</radialGradient>
		<path style="fill:url(#SVGID_00000043452939970983274100000007244674795390275472_);" d="M885.96,89.8c0,2.23-0.48,4.22-1.44,5.98
			c-0.96,1.76-2.25,3.26-3.88,4.5c-1.63,1.24-3.55,2.2-5.75,2.87c-2.2,0.67-4.57,1.01-7.1,1.01c-2.48,0-5.03-0.26-7.65-0.78
			c-2.61-0.52-5.01-1.29-7.18-2.33l1.4-5.67c1.91,0.88,4.02,1.61,6.33,2.17c2.3,0.57,4.62,0.85,6.95,0.85
			c3.36,0,6.08-0.71,8.15-2.14c2.07-1.42,3.11-3.48,3.11-6.17c0-1.5-0.3-2.78-0.89-3.84c-0.6-1.06-1.41-2.02-2.45-2.87
			c-1.04-0.85-2.24-1.62-3.61-2.29c-1.37-0.67-2.83-1.37-4.39-2.1c-1.76-0.83-3.45-1.69-5.09-2.6c-1.63-0.91-3.07-1.94-4.31-3.11
			s-2.24-2.48-2.99-3.96c-0.75-1.47-1.13-3.19-1.13-5.16c0-2.22,0.4-4.19,1.2-5.9c0.8-1.71,1.93-3.13,3.38-4.27
			c1.45-1.14,3.18-1.99,5.2-2.56c2.02-0.57,4.24-0.85,6.68-0.85c2.48,0,4.9,0.28,7.26,0.85c2.35,0.57,4.41,1.32,6.17,2.25
			l-1.32,5.67c-1.66-0.88-3.55-1.6-5.67-2.17c-2.12-0.57-4.27-0.85-6.44-0.85c-6.26,0-9.39,2.43-9.39,7.3
			c0,1.09,0.16,2.03,0.47,2.83c0.31,0.8,0.82,1.55,1.51,2.25c0.7,0.7,1.63,1.37,2.8,2.02c1.16,0.65,2.57,1.39,4.23,2.21
			c1.66,0.83,3.42,1.72,5.28,2.68c1.86,0.96,3.57,2.1,5.12,3.42c1.55,1.32,2.85,2.86,3.88,4.62
			C885.44,85.43,885.96,87.47,885.96,89.8z"/>
	</g>
</g>
<g>
	
		<radialGradient id="SVGID_00000096761019838005631380000005769936686409840063_" cx="-395.1874" cy="-101.7777" r="21.7219" gradientUnits="userSpaceOnUse">
		<stop  offset="0" style="stop-color:#007D76"/>
		<stop  offset="0.5524" style="stop-color:#007082"/>
		<stop  offset="1" style="stop-color:#00628F"/>
	</radialGradient>
	<path style="fill:url(#SVGID_00000096761019838005631380000005769936686409840063_);" d="M-415.03-108.6
		c9.21-6.8,19.53-12.38,30.73-16.63c4.29,9.98,7.3,20.23,8.95,30.54C-422.63-76.64-395.52-64.47-415.03-108.6z"/>
	
		<radialGradient id="SVGID_00000113341558098350027770000005559411823484931211_" cx="-513.6378" cy="-101.7554" r="21.7313" gradientUnits="userSpaceOnUse">
		<stop  offset="0" style="stop-color:#007D76"/>
		<stop  offset="0.5524" style="stop-color:#007082"/>
		<stop  offset="1" style="stop-color:#00628F"/>
	</radialGradient>
	<path style="fill:url(#SVGID_00000113341558098350027770000005559411823484931211_);" d="M-533.47-94.69
		c1.65-10.31,4.66-20.56,8.95-30.54c11.19,4.25,21.51,9.83,30.72,16.62C-513.37-64.39-486.13-76.6-533.47-94.69z"/>
	
		<radialGradient id="SVGID_00000044867743290119935480000001535708940069739164_" cx="-454.4143" cy="-77.0451" r="54.6836" gradientUnits="userSpaceOnUse">
		<stop  offset="0" style="stop-color:#007D76"/>
		<stop  offset="0.5524" style="stop-color:#007082"/>
		<stop  offset="1" style="stop-color:#00628F"/>
	</radialGradient>
	<path style="fill:url(#SVGID_00000044867743290119935480000001535708940069739164_);" d="M-454.41-9.69
		c-7.11-23.44-20.25-43.98-38.01-59.9c3.28-28.68,16.95-54.53,38.01-74.8c22.17,21.34,34.89,47.62,38,74.81
		C-434.36-53.44-447.35-32.94-454.41-9.69z"/>
	
		<radialGradient id="SVGID_00000180339254747743508300000018446366493359986816_" cx="-383.7836" cy="-48.2911" r="52.516" gradientUnits="userSpaceOnUse">
		<stop  offset="0" style="stop-color:#007D76"/>
		<stop  offset="0.5524" style="stop-color:#007082"/>
		<stop  offset="1" style="stop-color:#00628F"/>
	</radialGradient>
	<path style="fill:url(#SVGID_00000180339254747743508300000018446366493359986816_);" d="M-443.73-4.45
		c14.78-51.46,61.09-87.95,119.9-87.68C-348.79,4.64-404.63-66.36-443.73-4.45z"/>
	
		<radialGradient id="SVGID_00000010989675479811630040000016199887878592451220_" cx="-361.8909" cy="-14.3358" r="37.0417" gradientUnits="userSpaceOnUse">
		<stop  offset="0" style="stop-color:#007D76"/>
		<stop  offset="0.5524" style="stop-color:#007082"/>
		<stop  offset="1" style="stop-color:#00628F"/>
	</radialGradient>
	<path style="fill:url(#SVGID_00000010989675479811630040000016199887878592451220_);" d="M-396.64,24.86
		c11.46-13.2,9.08-30.75,37.92-50.66c8.77-6.06,19.17-8.56,31.58-27.74C-337.6-16.86-363.54,11.22-396.64,24.86z"/>
	
		<radialGradient id="SVGID_00000143589421422251681040000004261419358047317919_" cx="-285.0944" cy="-14.9494" r="37.0417" gradientTransform="matrix(-1 0 0 1 -830.4568 0)" gradientUnits="userSpaceOnUse">
		<stop  offset="0" style="stop-color:#007D76"/>
		<stop  offset="0.5524" style="stop-color:#007082"/>
		<stop  offset="1" style="stop-color:#00628F"/>
	</radialGradient>
	<path style="fill:url(#SVGID_00000143589421422251681040000004261419358047317919_);" d="M-510.61,24.25
		c-11.46-13.2-9.08-30.75-37.92-50.66c-8.77-6.06-19.17-8.56-31.58-27.74C-569.66-17.48-543.72,10.61-510.61,24.25z"/>
	
		<radialGradient id="SVGID_00000112598875026182340070000018211120026829176497_" cx="-413.6036" cy="5.3882" r="31.0146" gradientUnits="userSpaceOnUse">
		<stop  offset="0" style="stop-color:#007D76"/>
		<stop  offset="0.5524" style="stop-color:#007082"/>
		<stop  offset="1" style="stop-color:#00628F"/>
	</radialGradient>
	<path style="fill:url(#SVGID_00000112598875026182340070000018211120026829176497_);" d="M-446.72,32.93
		c12.05-46.23,33.3-54.84,61.79-55.78c8.59-0.28,4.2-2.04-3.96,10.32c-13.38,17.47-8.96,38.53-48.29,45.14
		C-448.71,34.55-446.97,33.92-446.72,32.93z"/>
	
		<radialGradient id="SVGID_00000116928458219584615160000009314636235548796814_" cx="-525.0369" cy="-48.2818" r="52.5253" gradientUnits="userSpaceOnUse">
		<stop  offset="0" style="stop-color:#007D76"/>
		<stop  offset="0.5524" style="stop-color:#007082"/>
		<stop  offset="1" style="stop-color:#00628F"/>
	</radialGradient>
	<path style="fill:url(#SVGID_00000116928458219584615160000009314636235548796814_);" d="M-465.08-4.42
		c-38.64-61.01-94.52,8.51-119.91-87.71C-526.63-92.41-479.97-56.3-465.08-4.42z"/>
	
		<radialGradient id="SVGID_00000182527146680458964000000008385376199932256662_" cx="-495.2185" cy="5.3926" r="31.0005" gradientUnits="userSpaceOnUse">
		<stop  offset="0" style="stop-color:#007D76"/>
		<stop  offset="0.5524" style="stop-color:#007082"/>
		<stop  offset="1" style="stop-color:#00628F"/>
	</radialGradient>
	<path style="fill:url(#SVGID_00000182527146680458964000000008385376199932256662_);" d="M-510.32,5.01
		C-523.87-26-535.31-23.2-523.9-22.85c27.42,0.85,49.42,8.43,62.02,56.7C-491.49,31.51-503.43,20.83-510.32,5.01z"/>
	
		<radialGradient id="SVGID_00000004517107824294114250000001619336926894192559_" cx="-577.4969" cy="70.3406" r="9.1099" gradientUnits="userSpaceOnUse">
		<stop  offset="0" style="stop-color:#007D76"/>
		<stop  offset="0.5524" style="stop-color:#007082"/>
		<stop  offset="1" style="stop-color:#00628F"/>
	</radialGradient>
	<path style="fill:url(#SVGID_00000004517107824294114250000001619336926894192559_);" d="M-572.32,80.46v-9.08h-10.36v9.08h-2.8
		V60.22h2.8V69h10.36v-8.78h2.8v20.24H-572.32z"/>
	
		<radialGradient id="SVGID_00000159435008984525644000000004278402586924510638_" cx="-561.4696" cy="70.3406" r="7.2223" gradientUnits="userSpaceOnUse">
		<stop  offset="0" style="stop-color:#007D76"/>
		<stop  offset="0.5524" style="stop-color:#007082"/>
		<stop  offset="1" style="stop-color:#00628F"/>
	</radialGradient>
	<path style="fill:url(#SVGID_00000159435008984525644000000004278402586924510638_);" d="M-560.07,80.46h-2.8V60.22h2.8V80.46z"/>
	
		<radialGradient id="SVGID_00000149360290315986517380000012109170110621716138_" cx="-545.0778" cy="70.3406" r="9.2717" gradientUnits="userSpaceOnUse">
		<stop  offset="0" style="stop-color:#007D76"/>
		<stop  offset="0.5524" style="stop-color:#007082"/>
		<stop  offset="1" style="stop-color:#00628F"/>
	</radialGradient>
	<path style="fill:url(#SVGID_00000149360290315986517380000012109170110621716138_);" d="M-539.41,80.46l-11.33-15.89v15.89h-2.67
		V60.22h2.67l11.33,15.89V60.22h2.67v20.24H-539.41z"/>
	
		<radialGradient id="SVGID_00000003080753626673857190000000794142756445366681_" cx="-522.7914" cy="70.3406" r="9.5732" gradientUnits="userSpaceOnUse">
		<stop  offset="0" style="stop-color:#007D76"/>
		<stop  offset="0.5524" style="stop-color:#007082"/>
		<stop  offset="1" style="stop-color:#00628F"/>
	</radialGradient>
	<path style="fill:url(#SVGID_00000003080753626673857190000000794142756445366681_);" d="M-520.51,59.86c1.13,0,2.22,0.1,3.25,0.29
		c1.03,0.19,1.96,0.49,2.8,0.9l-0.46,2.22c-0.87-0.34-1.78-0.62-2.72-0.82c-0.94-0.2-1.89-0.3-2.84-0.3c-2.51,0-4.49,0.73-5.92,2.2
		c-1.44,1.47-2.16,3.54-2.16,6.23c0,2.59,0.68,4.57,2.04,5.96c1.36,1.39,3.39,2.08,6.11,2.08c0.65,0,1.3-0.05,1.96-0.14
		c0.66-0.09,1.22-0.21,1.69-0.35v-6.59h2.55v8.16c-0.77,0.33-1.75,0.6-2.95,0.82c-1.2,0.22-2.39,0.32-3.59,0.32
		c-1.66,0-3.15-0.25-4.47-0.74c-1.32-0.5-2.43-1.19-3.34-2.1c-0.91-0.9-1.61-1.98-2.08-3.24c-0.48-1.26-0.71-2.64-0.71-4.16
		c0-1.58,0.25-3.03,0.74-4.34c0.5-1.32,1.21-2.45,2.14-3.39c0.93-0.94,2.07-1.68,3.4-2.2C-523.73,60.12-522.21,59.86-520.51,59.86z"
		/>
	
		<radialGradient id="SVGID_00000025438328750490732870000011292962499353654445_" cx="-500.1863" cy="70.3406" r="9.7746" gradientUnits="userSpaceOnUse">
		<stop  offset="0" style="stop-color:#007D76"/>
		<stop  offset="0.5524" style="stop-color:#007082"/>
		<stop  offset="1" style="stop-color:#00628F"/>
	</radialGradient>
	<path style="fill:url(#SVGID_00000025438328750490732870000011292962499353654445_);" d="M-490.77,80.46h-2.86l-1.85-4.89h-9.45
		l-1.82,4.89h-2.86l8.05-20.24h2.73L-490.77,80.46z M-504.08,73.32h7.78l-3.89-10.54L-504.08,73.32z"/>
	
		<radialGradient id="SVGID_00000050656572854566060570000003744856523702910131_" cx="-475.4237" cy="70.3406" r="10.5202" gradientUnits="userSpaceOnUse">
		<stop  offset="0" style="stop-color:#007D76"/>
		<stop  offset="0.5524" style="stop-color:#007082"/>
		<stop  offset="1" style="stop-color:#00628F"/>
	</radialGradient>
	<path style="fill:url(#SVGID_00000050656572854566060570000003744856523702910131_);" d="M-468.5,60.22h2.52l1.46,20.24h-2.67
		l-0.97-15.77L-474,76.81h-2.86l-5.83-12.12l-0.97,15.77h-2.67l1.46-20.24h2.52l6.93,14.31L-468.5,60.22z"/>
	
		<radialGradient id="SVGID_00000125578839274621340650000009927059544629385098_" cx="-456.9508" cy="70.3406" r="7.2223" gradientUnits="userSpaceOnUse">
		<stop  offset="0" style="stop-color:#007D76"/>
		<stop  offset="0.5524" style="stop-color:#007082"/>
		<stop  offset="1" style="stop-color:#00628F"/>
	</radialGradient>
	<path style="fill:url(#SVGID_00000125578839274621340650000009927059544629385098_);" d="M-455.55,80.46h-2.8V60.22h2.8V80.46z"/>
	
		<radialGradient id="SVGID_00000095305885822978492210000000960177585559442856_" cx="-443.6884" cy="70.3406" r="8.7053" gradientUnits="userSpaceOnUse">
		<stop  offset="0" style="stop-color:#007D76"/>
		<stop  offset="0.5524" style="stop-color:#007082"/>
		<stop  offset="1" style="stop-color:#00628F"/>
	</radialGradient>
	<path style="fill:url(#SVGID_00000095305885822978492210000000960177585559442856_);" d="M-437.23,75.2c0,0.87-0.19,1.65-0.56,2.34
		c-0.38,0.69-0.88,1.28-1.52,1.76c-0.64,0.49-1.39,0.86-2.25,1.12c-0.86,0.26-1.79,0.4-2.78,0.4c-0.97,0-1.97-0.1-2.99-0.3
		c-1.02-0.2-1.96-0.51-2.81-0.91l0.55-2.22c0.75,0.34,1.57,0.63,2.48,0.85c0.9,0.22,1.81,0.33,2.72,0.33c1.32,0,2.38-0.28,3.19-0.84
		c0.81-0.56,1.22-1.36,1.22-2.42c0-0.59-0.12-1.09-0.35-1.5c-0.23-0.41-0.55-0.79-0.96-1.12c-0.41-0.33-0.88-0.63-1.41-0.9
		c-0.54-0.26-1.11-0.54-1.72-0.82c-0.69-0.32-1.35-0.66-1.99-1.02c-0.64-0.35-1.2-0.76-1.69-1.22c-0.49-0.46-0.88-0.97-1.17-1.55
		c-0.29-0.58-0.44-1.25-0.44-2.02c0-0.87,0.16-1.64,0.47-2.31c0.31-0.67,0.75-1.23,1.32-1.67c0.57-0.45,1.25-0.78,2.04-1
		c0.79-0.22,1.66-0.33,2.61-0.33c0.97,0,1.92,0.11,2.84,0.33c0.92,0.22,1.73,0.52,2.42,0.88l-0.52,2.22
		c-0.65-0.34-1.39-0.63-2.22-0.85c-0.83-0.22-1.67-0.33-2.52-0.33c-2.45,0-3.68,0.95-3.68,2.86c0,0.43,0.06,0.8,0.18,1.11
		c0.12,0.31,0.32,0.61,0.59,0.88s0.64,0.54,1.09,0.79c0.46,0.25,1.01,0.54,1.66,0.87c0.65,0.32,1.34,0.67,2.07,1.05
		c0.73,0.37,1.4,0.82,2.01,1.34c0.61,0.52,1.11,1.12,1.52,1.81C-437.43,73.49-437.23,74.29-437.23,75.2z"/>
	
		<radialGradient id="SVGID_00000085965450222135607580000002092624994983641244_" cx="-424.4406" cy="70.3406" r="8.9462" gradientUnits="userSpaceOnUse">
		<stop  offset="0" style="stop-color:#007D76"/>
		<stop  offset="0.5524" style="stop-color:#007082"/>
		<stop  offset="1" style="stop-color:#00628F"/>
	</radialGradient>
	<path style="fill:url(#SVGID_00000085965450222135607580000002092624994983641244_);" d="M-432.04,80.46V60.22h2.8v9.81l8.45-9.81
		h3.37l-8.72,10.03l9.3,10.21h-3.52l-8.87-10.03v10.03H-432.04z"/>
	
		<radialGradient id="SVGID_00000042008268122790822410000002367203652149658009_" cx="-406.9398" cy="70.3406" r="8.2052" gradientUnits="userSpaceOnUse">
		<stop  offset="0" style="stop-color:#007D76"/>
		<stop  offset="0.5524" style="stop-color:#007082"/>
		<stop  offset="1" style="stop-color:#00628F"/>
	</radialGradient>
	<path style="fill:url(#SVGID_00000042008268122790822410000002367203652149658009_);" d="M-412.62,60.22h11.27v2.28h-8.48v6.47
		h8.11v2.28h-8.11v6.93h8.57v2.28h-11.36V60.22z"/>
	
		<radialGradient id="SVGID_00000163776313136799358980000005176602425382419622_" cx="-390.2744" cy="70.3406" r="8.7053" gradientUnits="userSpaceOnUse">
		<stop  offset="0" style="stop-color:#007D76"/>
		<stop  offset="0.5524" style="stop-color:#007082"/>
		<stop  offset="1" style="stop-color:#00628F"/>
	</radialGradient>
	<path style="fill:url(#SVGID_00000163776313136799358980000005176602425382419622_);" d="M-383.82,75.2c0,0.87-0.19,1.65-0.56,2.34
		c-0.38,0.69-0.88,1.28-1.52,1.76c-0.64,0.49-1.39,0.86-2.25,1.12c-0.86,0.26-1.79,0.4-2.78,0.4c-0.97,0-1.97-0.1-2.99-0.3
		c-1.02-0.2-1.96-0.51-2.81-0.91l0.55-2.22c0.75,0.34,1.57,0.63,2.48,0.85c0.9,0.22,1.81,0.33,2.72,0.33c1.32,0,2.38-0.28,3.19-0.84
		c0.81-0.56,1.22-1.36,1.22-2.42c0-0.59-0.12-1.09-0.35-1.5c-0.23-0.41-0.55-0.79-0.96-1.12c-0.41-0.33-0.88-0.63-1.41-0.9
		c-0.54-0.26-1.11-0.54-1.72-0.82c-0.69-0.32-1.35-0.66-1.99-1.02c-0.64-0.35-1.2-0.76-1.69-1.22c-0.49-0.46-0.88-0.97-1.17-1.55
		c-0.29-0.58-0.44-1.25-0.44-2.02c0-0.87,0.16-1.64,0.47-2.31c0.31-0.67,0.75-1.23,1.32-1.67c0.57-0.45,1.25-0.78,2.04-1
		c0.79-0.22,1.66-0.33,2.61-0.33c0.97,0,1.92,0.11,2.84,0.33c0.92,0.22,1.73,0.52,2.42,0.88l-0.52,2.22
		c-0.65-0.34-1.39-0.63-2.22-0.85c-0.83-0.22-1.67-0.33-2.52-0.33c-2.45,0-3.68,0.95-3.68,2.86c0,0.43,0.06,0.8,0.18,1.11
		c0.12,0.31,0.32,0.61,0.59,0.88s0.64,0.54,1.09,0.79c0.46,0.25,1.01,0.54,1.66,0.87c0.65,0.32,1.34,0.67,2.07,1.05
		c0.73,0.37,1.4,0.82,2.01,1.34c0.61,0.52,1.11,1.12,1.52,1.81C-384.02,73.49-383.82,74.29-383.82,75.2z"/>
	
		<radialGradient id="SVGID_00000133488735712733902150000001612586987172956067_" cx="-371.0267" cy="70.3406" r="8.9462" gradientUnits="userSpaceOnUse">
		<stop  offset="0" style="stop-color:#007D76"/>
		<stop  offset="0.5524" style="stop-color:#007082"/>
		<stop  offset="1" style="stop-color:#00628F"/>
	</radialGradient>
	<path style="fill:url(#SVGID_00000133488735712733902150000001612586987172956067_);" d="M-378.62,80.46V60.22h2.8v9.81l8.45-9.81
		h3.37l-8.72,10.03l9.3,10.21h-3.52l-8.87-10.03v10.03H-378.62z"/>
	
		<radialGradient id="SVGID_00000047039366912971094550000006473093689092037025_" cx="-351.5507" cy="70.5229" r="9.1918" gradientUnits="userSpaceOnUse">
		<stop  offset="0" style="stop-color:#007D76"/>
		<stop  offset="0.5524" style="stop-color:#007082"/>
		<stop  offset="1" style="stop-color:#00628F"/>
	</radialGradient>
	<path style="fill:url(#SVGID_00000047039366912971094550000006473093689092037025_);" d="M-346.42,60.22h2.8v13.06
		c0,1.05-0.17,2.04-0.52,2.96c-0.34,0.92-0.85,1.72-1.52,2.4c-0.67,0.68-1.49,1.21-2.48,1.6c-0.98,0.38-2.12,0.58-3.42,0.58
		c-1.3,0-2.44-0.19-3.42-0.58c-0.98-0.38-1.81-0.92-2.48-1.6c-0.67-0.68-1.18-1.48-1.52-2.4c-0.34-0.92-0.52-1.91-0.52-2.96V60.22
		h2.8v13.19c0,1.52,0.43,2.76,1.29,3.71c0.86,0.95,2.14,1.43,3.84,1.43c1.7,0,2.98-0.48,3.84-1.43c0.86-0.95,1.29-2.19,1.29-3.71
		V60.22z"/>
	
		<radialGradient id="SVGID_00000083077422504754619400000007217885583938814643_" cx="-332.0293" cy="70.3406" r="8.7053" gradientUnits="userSpaceOnUse">
		<stop  offset="0" style="stop-color:#007D76"/>
		<stop  offset="0.5524" style="stop-color:#007082"/>
		<stop  offset="1" style="stop-color:#00628F"/>
	</radialGradient>
	<path style="fill:url(#SVGID_00000083077422504754619400000007217885583938814643_);" d="M-325.57,75.2c0,0.87-0.19,1.65-0.56,2.34
		c-0.38,0.69-0.88,1.28-1.52,1.76c-0.64,0.49-1.39,0.86-2.25,1.12c-0.86,0.26-1.79,0.4-2.78,0.4c-0.97,0-1.97-0.1-2.99-0.3
		c-1.02-0.2-1.96-0.51-2.81-0.91l0.55-2.22c0.75,0.34,1.57,0.63,2.48,0.85c0.9,0.22,1.81,0.33,2.72,0.33c1.32,0,2.38-0.28,3.19-0.84
		c0.81-0.56,1.22-1.36,1.22-2.42c0-0.59-0.12-1.09-0.35-1.5c-0.23-0.41-0.55-0.79-0.96-1.12c-0.41-0.33-0.88-0.63-1.41-0.9
		c-0.54-0.26-1.11-0.54-1.72-0.82c-0.69-0.32-1.35-0.66-1.99-1.02c-0.64-0.35-1.2-0.76-1.69-1.22c-0.49-0.46-0.88-0.97-1.17-1.55
		c-0.29-0.58-0.44-1.25-0.44-2.02c0-0.87,0.16-1.64,0.47-2.31c0.31-0.67,0.75-1.23,1.32-1.67c0.57-0.45,1.25-0.78,2.04-1
		c0.79-0.22,1.66-0.33,2.61-0.33c0.97,0,1.92,0.11,2.84,0.33c0.92,0.22,1.73,0.52,2.42,0.88l-0.52,2.22
		c-0.65-0.34-1.39-0.63-2.22-0.85c-0.83-0.22-1.67-0.33-2.52-0.33c-2.45,0-3.68,0.95-3.68,2.86c0,0.43,0.06,0.8,0.18,1.11
		c0.12,0.31,0.32,0.61,0.59,0.88s0.64,0.54,1.09,0.79c0.46,0.25,1.01,0.54,1.66,0.87c0.65,0.32,1.34,0.67,2.07,1.05
		c0.73,0.37,1.4,0.82,2.01,1.34c0.61,0.52,1.11,1.12,1.52,1.81C-325.78,73.49-325.57,74.29-325.57,75.2z"/>
</g>
</svg>
